<?xml version="1.0" encoding="utf-8"?>
<!-- Generator: Adobe Illustrator 23.0.3, SVG Export Plug-In . SVG Version: 6.00 Build 0)  -->
<svg version="1.1" id="Layer_1" xmlns="http://www.w3.org/2000/svg" xmlns:xlink="http://www.w3.org/1999/xlink" x="0px" y="0px"
	 viewBox="0 0 43.0000229 42.9999924" style="enable-background:new 0 0 43.0000229 42.9999924;" xml:space="preserve">
<style type="text/css">
	.st0{fill:#BEBEBE;}
	.st1{fill:#FFE000;}
</style>
<path fill="#fff" d="M34.206562,24.5566082c-5.428833-0.2496948-9.8995972,4.2209473-9.6500244,9.6497173
	c0.2175903,4.7330933,4.0505981,8.5661011,8.7836304,8.7836914c5.4286499,0.2496338,9.899292-4.2208252,9.6499023-9.6495361
	C42.7726021,28.6073895,38.9396553,24.7742596,34.206562,24.5566082z M34.1395454,41.5721092
	c-4.5935059,0.2110596-8.3762817-3.5718384-8.1650391-8.1653442c0.1841431-4.0049419,3.4274902-7.2482281,7.432373-7.4323101
	c4.5936279-0.2111816,8.3765259,3.5718384,8.1652222,8.1655254C41.3878365,38.1448631,38.1444283,41.3880882,34.1395454,41.5721092z
	 M8.7935972,18.443449c5.4286499,0.2496338,9.8992929-4.2208252,9.6499033-9.6495972
	c-0.2174683-4.7330937-4.050416-8.5661621-8.7834482-8.7838745C4.2311587-0.2397179-0.2396056,4.2309241,0.0099672,9.6597576
	C0.2275575,14.3927898,4.0605655,18.2257977,8.7935972,18.443449z M8.8603086,1.4278237
	c4.5936279-0.2111816,8.3765268,3.5718994,8.1652231,8.1655273c-0.1842651,4.0049438-3.4276133,7.2481689-7.4325571,7.4321289
	C4.9994693,17.2365398,1.2167543,13.4536419,1.427936,8.860136C1.612079,4.8552527,4.8554263,1.6119667,8.8603086,1.4278237z
	 M42.3555489,1.6118447L1.5536684,42.413723c-0.2822876,0.2823486-0.7401124,0.2823486-1.0224609,0
	s-0.2823486-0.7401123,0-1.0224609L41.3330269,0.5893226c0.2823486-0.2823486,0.7401733-0.2823486,1.022522,0l0.000061,0.0001221
	C42.6378975,0.8717933,42.6378975,1.3295571,42.3555489,1.6118447z"/>
</svg>
