<?xml version="1.0" encoding="utf-8"?>
<!-- Generator: Adobe Illustrator 23.0.3, SVG Export Plug-In . SVG Version: 6.00 Build 0)  -->
<svg version="1.1" id="Layer_1" xmlns="http://www.w3.org/2000/svg" xmlns:xlink="http://www.w3.org/1999/xlink" x="0px" y="0px"
	 viewBox="0 0 43 43" style="enable-background:new 0 0 43 43;" xml:space="preserve">
<style type="text/css">
	.st0{fill:#BEBEBE;}
	.st1{fill:#FFE000;}
</style>
<path fill="#fff" d="M19.3499756,10.0333252c0.3955688,0,0.7166748-0.3210449,0.7166748-0.7166138V5.0167236
	c0-0.3955688-0.321106-0.7166748-0.7166748-0.7166748h-2.8666382c-0.3955688,0-0.7166138,0.321106-0.7166138,0.7166748v4.2999878
	c-0.000061,0.3955688,0.3209839,0.7166138,0.7166138,0.7166138H19.3499756z M17.2000122,5.7333374h1.4333496v2.8666382h-1.4333496
	V5.7333374z M15.7667236,17.916626h-0.000061c0,0.3955688,0.3210449,0.7166138,0.7166138,0.7166138h2.8666992
	c0.3955688,0,0.7166748-0.3210449,0.7166748-0.7166138v-4.2999878c0-0.3955688-0.321106-0.7166748-0.7166748-0.7166748h-2.8666382
	c-0.3955688,0-0.7166138,0.321106-0.7166138,0.7166748V17.916626z M17.2000122,14.333374h1.4333496v2.8666382h-1.4333496V14.333374z
	 M3.583374,25.7999878C0.0408325,25.7999878,0,35.0234985,0,35.1166382c0,1.7307129,1.2333984,3.1776733,2.8666382,3.5109253
	v3.6557617C2.8666382,42.678894,3.1876831,43,3.583252,43s0.7166748-0.321106,0.7166748-0.7166748v-3.6557617
	c1.6332397-0.333252,2.8666382-1.7802124,2.8666382-3.5109253C7.166626,35.0234985,7.1258545,25.7999878,3.583374,25.7999878z
	 M3.583374,37.2666016c-1.1853638,0-2.1500244-0.9645996-2.1500244-2.1499634c0-3.5704346,0.9589233-7.8833618,2.1500244-7.8833618
	c1.19104,0,2.1499634,4.3129272,2.1499634,7.8833618C5.7333374,36.302002,4.7687378,37.2666016,3.583374,37.2666016z
	 M8.5999146,22.2167358v4.2999878c0,0.3955688-0.3210449,0.7166138-0.7166138,0.7166138S7.166626,26.9122925,7.166626,26.5167236
	v-3.583374H5.7332764v0.7166138c0,0.3955688-0.3210449,0.7166748-0.7166138,0.7166748s-0.7166748-0.321106-0.7166748-0.7166748
	v-1.4333496c0-0.3955688,0.321106-0.7166138,0.7166748-0.7166138h2.8666992
	C8.2789307,21.5,8.5999756,21.8210449,8.5999146,22.2167358z M10.0332642,9.3167114
	c0,0.3955688-0.3210449,0.7166138-0.7166138,0.7166138H1.4332886v13.6166382c0,0.3955688-0.321106,0.7166748-0.7166748,0.7166748
	S0,24.0455322,0,23.6499634V9.3166504c0-0.3955688,0.3210449-0.7166748,0.7166138-0.7166748h8.6000366
	C9.7122803,8.5999756,10.0332642,8.9211426,10.0332642,9.3167114z M7.8833618,12.8999634H5.0166626
	c-0.3955688,0-0.7166748,0.321106-0.7166748,0.7166748v4.2999878c0,0.3955688,0.321106,0.7166138,0.7166748,0.7166138h2.8666382
	c0.3955688,0,0.7166138-0.3210449,0.7166138-0.7166138v-4.2999878C8.5999756,13.2210693,8.2789307,12.8999634,7.8833618,12.8999634z
	 M7.166748,17.2000122H7.166626H5.7333374V14.333374H7.166748V17.2000122z M31.5332642,40.8500977
	c0,0.3955688-0.3210449,0.7166138-0.7166138,0.7166138H11.4666138v0.7166138C11.4666138,42.678894,11.1455688,43,10.75,43
	s-0.7166138-0.321106-0.7166138-0.7166748v-1.4333496c0-0.3955688,0.3210449-0.7166138,0.7166138-0.7166138h20.0666504
	C31.2122803,40.1333618,31.5332642,40.4545288,31.5332642,40.8500977z M31.5332642,0.7166138v37.2666626
	c0,0.3955688-0.3210449,0.7166138-0.7166138,0.7166138s-0.7166748-0.3210449-0.7166748-0.7166138V1.4332886H12.9000244v36.5499878
	c0,0.3955688-0.321106,0.7166138-0.7166748,0.7166138s-0.7166138-0.3210449-0.7166138-0.7166138V0.7166138
	C11.4667358,0.3210449,11.7877808,0,12.1833496,0h18.6333008C31.2122803,0,31.5333862,0.3210449,31.5332642,0.7166138z
	 M34.4000244,26.5166016c0,0.3955688,0.3210449,0.7166748,0.7166138,0.7166748h2.8666382
	c0.3955688,0,0.7166138-0.321106,0.7166138-0.7166748v-4.2999878c0-0.3955688-0.3210449-0.7166138-0.7166138-0.7166138h-2.8666382
	c-0.3955688,0-0.7166138,0.3210449-0.7166138,0.7166138V26.5166016z M35.833374,22.9333496h1.4333496v2.8666382H35.833374
	V22.9333496z M42.2833862,8.5999756h-8.6000366c-0.3955688,0-0.7166138,0.321106-0.7166138,0.7166748
	s0.3210449,0.7166138,0.7166138,0.7166138h7.8833618v28.798584c-0.2249756-0.0803223-0.4636841-0.1318359-0.7166138-0.1318359
	c-0.1239624,0-0.2472534,0.0107422-0.3683472,0.0322266c-0.4945068-0.8908081-1.4354858-1.4656372-2.498291-1.4656372
	s-2.0037842,0.5748291-2.498291,1.4656372c-0.1210938-0.0214844-0.2443848-0.0322266-0.3683472-0.0322266
	c-1.1853638,0-2.1500244,0.9645996-2.1500244,2.1499634S33.9314575,43,35.1168213,43h5.7331543
	C42.0353394,43,43,42.0353394,43,40.8499756V9.3166504C43,8.9210815,42.6789551,8.5999756,42.2833862,8.5999756z
	 M40.8499756,41.5666504h-5.7333374c-0.3948975,0-0.7166138-0.3217773-0.7166138-0.7166748s0.3217163-0.7166138,0.7166138-0.7166138
	c0.1375732,0,0.2680054,0.0393677,0.3884277,0.1168213c0.1963501,0.1261597,0.4415283,0.1490479,0.657959,0.0616455
	c0.2164307-0.0874634,0.3762207-0.2752075,0.4285278-0.5023804c0.1512451-0.6528931,0.723877-1.109436,1.3917847-1.109436
	c0.6679688,0,1.2405396,0.456543,1.3917847,1.109436c0.0523682,0.2271729,0.2121582,0.414917,0.4285889,0.5023804
	c0.2157593,0.0874023,0.4614868,0.0645142,0.657959-0.0616455c0.4664917-0.3010254,1.1050415,0.0673218,1.1050415,0.5997925
	C41.5666504,41.244873,41.244873,41.5666504,40.8499756,41.5666504z M16.4832764,27.2332764h2.8666992
	c0.3955688,0,0.7166748-0.321106,0.7166748-0.7166748v-4.2999878c0-0.3955688-0.321106-0.7166138-0.7166748-0.7166138h-2.8666382
	c-0.3955688,0-0.7166138,0.3210449-0.7166138,0.7166138v4.2999878h-0.000061
	C15.7666626,26.9121704,16.0877075,27.2332764,16.4832764,27.2332764z M17.2000122,22.9333496h1.4333496v2.8666382h-1.4333496
	V22.9333496z M35.1166382,18.6333618h2.8666382c0.3955688,0,0.7166138-0.321106,0.7166138-0.7166748v-4.2999878
	c0-0.3955688-0.3210449-0.7166138-0.7166138-0.7166138h-2.8666382c-0.3955688,0-0.7166138,0.3210449-0.7166138,0.7166138v4.2999878
	C34.4000244,18.3122559,34.7210693,18.6333618,35.1166382,18.6333618z M35.833374,14.333374h1.4333496v2.8666382H35.833374
	V14.333374z M34.4000244,35.1166382c0,0.3955688,0.3210449,0.7166138,0.7166138,0.7166138h2.8666382
	c0.3955688,0,0.7166138-0.3210449,0.7166138-0.7166138v-4.2999878c0-0.3955688-0.3210449-0.7166748-0.7166138-0.7166748h-2.8666382
	c-0.3955688,0-0.7166138,0.321106-0.7166138,0.7166748V35.1166382z M35.833374,31.5333252h1.4333496v2.8666382H35.833374V31.5333252
	z M15.0499878,30.0999756h12.8999023c0.3955688,0,0.7166748,0.321106,0.7166748,0.7166748s-0.321106,0.7166138-0.7166748,0.7166138
	h-2.1499634v6.4500122c0,0.3955688-0.321106,0.7166138-0.7166748,0.7166138s-0.7166138-0.3210449-0.7166138-0.7166138v-6.4500122
	h-5.7333374v6.4500122c0,0.3955688-0.321106,0.7166138-0.7166748,0.7166138s-0.7166138-0.3210449-0.7166138-0.7166138v-6.4500122
	h-2.1500244c-0.3955688,0-0.7166138-0.3210449-0.7166138-0.7166138S14.6544189,30.0999756,15.0499878,30.0999756z
	 M22.0088501,34.6078491c0.1290283,0.1362305,0.2078857,0.3225098,0.2078857,0.5088501
	c0,0.1864014-0.0788574,0.3727417-0.2078857,0.5088501C21.8726196,35.7545776,21.6863403,35.8334351,21.5,35.8334351
	s-0.3727417-0.0788574-0.5088501-0.2078857c-0.1290283-0.1362305-0.2078857-0.3224487-0.2078857-0.5088501
	c0-0.1863403,0.0788574-0.3727417,0.2078857-0.5088501C21.2634888,34.3425903,21.7365112,34.3425903,22.0088501,34.6078491z
	 M22.9333496,17.916626c0,0.3955688,0.321106,0.7166138,0.7166748,0.7166138h2.8666382
	c0.3955688,0,0.7166138-0.3210449,0.7166138-0.7166138v-4.2999878c0-0.3955688-0.3210449-0.7166748-0.7166138-0.7166748h-2.8666382
	c-0.3955688,0-0.7166748,0.321106-0.7166748,0.7166748V17.916626z M24.3666382,14.333374h1.4333496v2.8666382h-1.4333496V14.333374z
	 M23.6500244,10.0333252h2.8666382c0.3955688,0,0.7166138-0.3210449,0.7166138-0.7166138V5.0167236
	c0-0.3955688-0.3210449-0.7166748-0.7166138-0.7166748h-2.8666382c-0.3955688,0-0.7166748,0.321106-0.7166748,0.7166748v4.2999878
	C22.9333496,9.7122803,23.2544556,10.0333252,23.6500244,10.0333252z M24.3666382,5.7333374h1.4333496v2.8666382h-1.4333496
	V5.7333374z M22.9333496,26.5166016c0,0.3955688,0.321106,0.7166748,0.7166748,0.7166748h2.8666382
	c0.3955688,0,0.7166138-0.321106,0.7166138-0.7166748v-4.2999878c0-0.3955688-0.3210449-0.7166138-0.7166138-0.7166138h-2.8666382
	c-0.3955688,0-0.7166748,0.3210449-0.7166748,0.7166138V26.5166016z M24.3666382,22.9333496h1.4333496v2.8666382h-1.4333496
	V22.9333496z"/>
</svg>
