<?xml version="1.0" encoding="utf-8"?>
<!-- Generator: Adobe Illustrator 23.0.3, SVG Export Plug-In . SVG Version: 6.00 Build 0)  -->
<svg version="1.1" id="Layer_1" xmlns="http://www.w3.org/2000/svg" xmlns:xlink="http://www.w3.org/1999/xlink" x="0px" y="0px"
	 viewBox="0 0 33 43.0000458" style="enable-background:new 0 0 33 43.0000458;" xml:space="preserve">
<style type="text/css">
	.st0{fill:#BEBEBE;}
	.st1{fill:#FFE000;}
</style>
<path fill="#fff" d="M16.500061,15.620285c1.1226196,0,2.0358887-0.9160156,2.0358887-2.0420532s-0.913269-2.0420532-2.0358887-2.0420532
	c-1.1226807,0-2.0359497,0.9160767-2.0359497,2.0420532C14.4641113,14.7041473,15.3773804,15.620285,16.500061,15.620285z
	 M16.500061,12.946579c0.347229,0,0.6296387,0.2833252,0.6296387,0.6316528c0,0.3482666-0.2824097,0.6316528-0.6296387,0.6316528
	c-0.34729,0-0.6296997-0.2833862-0.6296997-0.6316528C15.8703613,13.2299042,16.152771,12.946579,16.500061,12.946579z
	 M3.6074829,4.9567108C3.2556763,5.0008392,2.9915771,5.300827,2.9915771,5.6565399V27.347641
	c0,2.5889893,1.3977051,4.9857788,3.647522,6.2550049l9.5161743,5.3687744
	c0.1069946,0.0603638,0.2258301,0.0905762,0.3446655,0.0905762s0.2376709-0.0302124,0.3446655-0.0905762l9.5161743-5.3687744
	v0.0001221c2.2498169-1.2692261,3.647522-3.6660156,3.647522-6.2550049V5.6564178
	c0-0.3555908-0.2640991-0.6556396-0.6159058-0.6997681L16.5872803,3.3513641c-0.0581055-0.0073242-0.116394-0.0073242-0.1744995,0
	L3.6074829,4.9567108z M28.6021118,6.2789764V27.34758c0,2.0801392-1.1229858,4.0059204-2.930542,5.0257568l-9.1715088,5.1741943
	l-9.1715698-5.1741943c-1.8076172-1.0197754-2.930542-2.9456177-2.930542-5.0257568V6.2789764L16.500061,4.7617645
	L28.6021118,6.2789764z M13.8222046,19.5466156v10.8654785c0,0.2671509,0.1505737,0.5112915,0.3886719,0.6306763
	l1.9746094,0.9902344c0.098999,0.0496216,0.2067261,0.0744629,0.3144531,0.0744629s0.2155151-0.0248413,0.3144531-0.0744629
	l1.9746094-0.9902344c0.2381592-0.1193848,0.3886719-0.3636475,0.3886719-0.6306763V19.5466156
	c1.8135986-0.9814453,2.961853-2.8875122,2.961853-4.9781494c0-3.1188965-2.5299683-5.6563721-5.6397095-5.6563721
	c-3.1096802,0-5.6394653,2.5374756-5.6394653,5.6563721C10.8603516,16.6591034,12.008606,18.5651703,13.8222046,19.5466156z
	 M16.500061,10.3226776c2.3343506,0,4.2333984,1.9046021,4.2333984,4.2457886c0,1.6877441-0.9971313,3.215271-2.5404053,3.8917847
	c-0.2560425,0.1121216-0.4215698,0.3658447-0.4215698,0.6461182v10.869812l-1.2714233,0.6376953l-1.2714844-0.6376343v-1.8296509
	h0.2841797c0.3883667,0,0.703125-0.3157349,0.703125-0.7052002c0-0.3894043-0.3147583-0.7052002-0.703125-0.7052002h-0.2841797
	v-1.5602417h0.2841797c0.3883667,0,0.703125-0.3157349,0.703125-0.7052002c0-0.3894043-0.3147583-0.7052002-0.703125-0.7052002
	h-0.2841797V22.205307h0.2841797c0.3883667,0,0.703125-0.3157349,0.703125-0.7052002
	c0-0.3894043-0.3147583-0.7052002-0.703125-0.7052002h-0.2841797v-1.6883545c0-0.2802734-0.1655273-0.5339966-0.4215698-0.6461182
	c-1.5432739-0.6765137-2.5404053-2.2041626-2.5404053-3.8917847C12.2666016,12.2273407,14.1656494,10.3226776,16.500061,10.3226776z
	 M32.3842163,1.9860077l-15.796936-1.9804688c-0.0581055-0.0073853-0.116394-0.0073853-0.1744995,0L0.6158447,1.9860077
	C0.2640381,2.0301361,0,2.3300629,0,2.6857758v26.0279541c0,3.1343384,1.6920776,6.0360718,4.4158325,7.5728149
	l11.7394409,6.6229248c0.1071167,0.0603638,0.2259521,0.0905762,0.3447876,0.0905762
	c0.1187744,0,0.2376099-0.0302124,0.3446045-0.0905762l11.7394409-6.6229248C31.3078613,34.7498016,33,31.8481903,33,28.7137299
	V2.6857758C33.000061,2.3300629,32.7360229,2.0301361,32.3842163,1.9860077z M31.593811,28.7137299
	c0,2.6255493-1.4174194,5.0562744-3.6989746,6.3435669L16.500061,41.4857025L5.1052856,35.0571747
	C2.8236694,33.7698822,1.40625,31.3392792,1.40625,28.7136688V3.3083344l15.093811-1.8922729l15.09375,1.8922729V28.7137299z"/>
</svg>
