<?xml version="1.0" encoding="utf-8"?>
<!-- Generator: Adobe Illustrator 23.0.3, SVG Export Plug-In . SVG Version: 6.00 Build 0)  -->
<svg version="1.1" id="Layer_1" xmlns="http://www.w3.org/2000/svg" xmlns:xlink="http://www.w3.org/1999/xlink" x="0px" y="0px"
	 viewBox="0 0 41 41" style="enable-background:new 0 0 41 41;" xml:space="preserve">
<style type="text/css">
	.st0{fill:#BEBEBE;}
	.st1{fill:#FFE000;}
</style>
<path fill="#fff" d="M32.2057495,12.0737915c0.2800903,0.2692261,0.2888794,0.7161865,0.0197754,0.9962158L15.7294312,30.2260132
	c-0.1323242,0.1375122-0.3175659,0.2164307-0.5081787,0.2164307h-0.041626c-0.178833,0-0.3643799-0.0931396-0.49646-0.2494507
	l-7.2582397-8.5778809c-0.2510376-0.2967529-0.2139893-0.7423706,0.0829468-0.9935303
	c0.1283569-0.1087036,0.2875366-0.1668701,0.4537964-0.1668701c0.0197754,0,0.0396729,0.0008545,0.0595703,0.0025024
	c0.187561,0.015625,0.3579102,0.1034546,0.4796753,0.2474365l6.7537842,7.9819946L31.2090454,12.093811
	C31.4786377,11.8135986,31.9256592,11.8046875,32.2057495,12.0737915z M41,20.5
	c0,5.475647-2.1326904,10.6235352-6.0053101,14.4954834C31.123291,38.8676147,25.9755859,41,20.5,41
	c-5.475647,0-10.6235962-2.1326904-14.4954834-6.0053711C2.1324463,31.12323,0,25.975647,0,20.5
	S2.1326904,9.8764648,6.005249,6.0045166C9.876709,2.1324463,15.0244141,0,20.5,0s10.6234741,2.1326294,14.4953613,6.005188
	l0.000061,0.000061C38.8675537,9.876709,41,15.024353,41,20.5z M39.5908203,20.5
	c0-5.0991821-1.986084-9.8930664-5.5921631-13.4985962C30.3930664,3.3952026,25.5991821,1.4091797,20.5,1.4091797
	S10.6068726,3.3952026,7.0014038,7.0013428C3.3952026,10.6068726,1.4091797,15.4008179,1.4091797,20.5
	s1.9860229,9.8931274,5.5921631,13.4985352C10.6069336,37.6047363,15.4008179,39.5908203,20.5,39.5908203
	s9.8930664-1.986084,13.4985352-5.5922241C37.6047363,30.3931274,39.5908203,25.5991821,39.5908203,20.5z"/>
</svg>
