<?xml version="1.0" encoding="utf-8"?>
<!-- Generator: Adobe Illustrator 23.0.3, SVG Export Plug-In . SVG Version: 6.00 Build 0)  -->
<svg version="1.1" id="Layer_1" xmlns="http://www.w3.org/2000/svg" xmlns:xlink="http://www.w3.org/1999/xlink" x="0px" y="0px"
	 viewBox="0 0 65 51" style="enable-background:new 0 0 65 51;" xml:space="preserve">
<style type="text/css">
	.st0{fill:#BEBEBE;}
	.st1{fill:#FFE000;}
</style>
<path fill="#5a76c0" d="M62.0001221,30.6428833v-1.7315674c0-5.8945923-4.6587524-10.7207642-10.5237427-11.097168V7.2145996h-4.456665V3.229248
	h-3.4403076V0H7.8964844v3.229248H4.456665v3.9853516H0v29.7903442h36.4868774V51H65V30.6428833H62.0001221z M60.5342407,28.9113159
	v1.7315674H40.9521484v-1.7315674c0-5.3398438,4.3922729-9.684082,9.7913208-9.684082
	C56.1420288,19.2272339,60.5342407,23.5714722,60.5342407,28.9113159z M36.2860718,22.1096191
	c0,5.7619019-4.7223511,10.4328613-10.5479736,10.4328613c-5.8254395,0-10.5479126-4.6709595-10.5479126-10.4328613
	c0-5.7615967,4.7224731-10.4326172,10.5479126-10.4326172C31.5637207,11.677002,36.2860718,16.3480225,36.2860718,22.1096191z
	 M9.3623047,1.4498291h32.7512817V3.229248H9.3623047V1.4498291z M5.9224854,4.6790771H45.553894v2.5355225H5.9224854V4.6790771z
	 M63.5341797,49.5501709H37.9527588V32.0927124h1.5335693h22.5137939h1.5340576V49.5501709z M50.7434692,34.9661255
	c-2.1367188,0-3.875,1.7192993-3.875,3.8324585c0,1.326355,0.7033081,2.5557861,1.8265381,3.2498169v4.6283569h4.0964355v-4.6283569
	c1.12323-0.6940308,1.8265381-1.9234619,1.8265381-3.2498169C54.617981,36.6854248,52.8796997,34.9661255,50.7434692,34.9661255z
	 M51.7507324,40.960083l-0.4251709,0.194397v4.0724487h-1.1647339V41.15448l-0.4251099-0.194397
	c-0.8512573-0.3893433-1.4014282-1.2376709-1.4014282-2.161499c0-1.3139038,1.0807495-2.3826294,2.4091797-2.3826294
	c1.3279419,0,2.4086914,1.0687256,2.4086914,2.3826294C53.1521606,39.7224121,52.6019897,40.5707397,51.7507324,40.960083z
	 M22.2466431,16.8330688v7.9208374h-0.5194702c-0.4049072,0-0.7329102,0.324585-0.7329102,0.7249146
	c0,0.4003906,0.3280029,0.7249146,0.7329102,0.7249146h0.5194702v1.6723633c0,0.4310913,0.3031616,0.7684937,0.7390137,0.7684937
	c0.4174194,0,0.7397461-0.3374023,0.7397461-0.7684937v-1.6723633h3.3983154c0.4047241,0,0.7329102-0.3245239,0.7329102-0.7249146
	c0-0.4003296-0.328186-0.7249146-0.7329102-0.7249146h-3.3983154v-1.4901123h2.9190063
	c2.3887939,0,3.9995117-1.4625244,3.9995117-3.6187134c0-2.1372681-1.6107178-3.5808105-3.9995117-3.5808105h-3.6204834
	C22.5689697,16.06427,22.2466431,16.4016113,22.2466431,16.8330688z M23.7254028,17.3765259h2.8814087
	c1.553894,0,2.5022583,0.8811646,2.5022583,2.2875366c0,1.4249268-0.9483643,2.2871704-2.5022583,2.2871704h-2.8814087V17.3765259z"
	/>
</svg>
