<?xml version="1.0" encoding="utf-8"?>
<!-- Generator: Adobe Illustrator 23.0.3, SVG Export Plug-In . SVG Version: 6.00 Build 0)  -->
<svg version="1.1" id="Layer_1" xmlns="http://www.w3.org/2000/svg" xmlns:xlink="http://www.w3.org/1999/xlink" x="0px" y="0px"
	 viewBox="0 0 52.9999924 59" style="enable-background:new 0 0 52.9999924 59;" xml:space="preserve">
<style type="text/css">
	.st0{fill:#BEBEBE;}
	.st1{fill:#FFE000;}
</style>
<path fill="#5a76c0" d="M52.7095299,8.0159912l-0.085083-0.7180786l-0.7252197,0.0845337
	C36.7135582,9.1546021,27.0907555,0.5391846,26.9952354,0.4520874L26.4995079,0l-0.494751,0.4520874
	c-0.09552,0.0873413-9.7240601,8.7001953-24.9039917,6.9303589L0.3755446,7.2979126l-0.085083,0.7180786
	c-0.0128174,0.104248-1.211853,10.56604,1.3577881,21.9783325c3.4265747,15.2193604,11.9487305,25.2285156,24.6450195,28.9451904
	L26.4999962,59l0.2067261-0.0604858c12.6962891-3.7166748,21.2184448-13.7258301,24.6450195-28.9451904
	C53.9213829,18.5820313,52.7223473,8.1202393,52.7095299,8.0159912z M49.9269371,29.6796875
	C46.6619225,44.1801147,39.020565,53.4395752,27.2299767,57.246521v-9.0222778c0-0.399353-0.3269653-0.7229614-0.7299805-0.7229614
	s-0.7299805,0.3236084-0.7299805,0.7229614v9.0222778C13.9896803,53.4428711,6.3512526,44.1958008,3.0815992,29.7163696
	c-2.1419067-9.4848022-1.623413-18.3028564-1.4095458-20.8185425C2.9190626,9.0187988,4.1257277,9.074585,5.2934523,9.074585
	c11.6217051-0.0009155,19.2342529-5.5252686,21.206543-7.1369629c2.1709595,1.7740479,11.1707153,8.2880859,24.8284302,6.9602051
	C51.5422935,11.4085693,52.0612755,20.199585,49.9269371,29.6796875z M38.2790489,36.2210083V21.6898804l1.6519775,0.9071655
	c0.3521729,0.1929932,0.7969971,0.0673218,0.9923096-0.2816772c0.1958008-0.3493042,0.0684204-0.7893677-0.2841797-0.9830933
	l-13.7850952-7.5697632c-0.22052-0.1209717-0.4876099-0.1209717-0.7081299,0l-13.7855234,7.5697632
	c-0.3526611,0.1937256-0.4800415,0.6337891-0.2842407,0.9830933c0.1330566,0.2381592,0.3821411,0.3725586,0.6387329,0.3725586
	c0.119751,0,0.2414551-0.0294189,0.3535767-0.0908813l1.6519775-0.9071045v14.5310669H38.2790489z M24.3352623,34.7749634H19.049984
	v-8.6015015c0-1.4431763,1.1853027-2.6173706,2.642395-2.6173706s2.6428833,1.1741943,2.6428833,2.6173706V34.7749634z
	 M33.9500084,34.7749634h-5.2852783v-8.6015015c0-1.4431763,1.1853027-2.6173706,2.642395-2.6173706
	c1.4571533,0,2.6428833,1.1741943,2.6428833,2.6173706V34.7749634z M26.4999962,15.2216797l10.3190918,5.6665039v13.8867798
	h-1.4091187v-8.6015015c0-2.2405396-1.8406372-4.0633545-4.1028442-4.0633545c-2.262146,0-4.102356,1.8228149-4.102356,4.0633545
	v8.6015015h-1.4095459v-8.6015015c0-2.2405396-1.8406372-4.0633545-4.1028442-4.0633545s-4.102356,1.8228149-4.102356,4.0633545
	v8.6015015h-1.4096069V20.8882446L26.4999962,15.2216797z M38.1284142,37.3633423H14.8715773
	c-1.592041,0-2.887146,1.2826538-2.887146,2.8592529v1.1574707h29.0306396v-1.1574707
	C41.0150719,38.6459961,39.7200279,37.3633423,38.1284142,37.3633423z M13.4743605,39.934082
	c0.1349487-0.6412964,0.710022-1.1247559,1.3972168-1.1247559h23.2568359c0.6867065,0,1.2617798,0.4834595,1.3967285,1.1247559
	H13.4743605z M49.6566124,10.802002c0.1868896,3.6325073,0.2426147,10.9094849-1.5102539,18.6147461
	c-1.2052002,5.2972412-3.0236816,9.8477783-5.4279175,13.6592407v-0.0089722v-0.6561279v-2.1882935
	c0-1.8527832-1.126709-3.4477539-2.7359619-4.1550293V25.0784302c0.1004639,0.0096436,0.2009888,0.0192261,0.3022461,0.0192261
	c1.1496582,0,2.2103882-0.6185303,2.7659302-1.6126099c0.4106445-0.7319946,0.5085449-1.5782471,0.2756958-2.3831787
	c-0.2329102-0.8049316-0.7685547-1.4719238-1.507019-1.8771362l-13.7827148-7.5683594
	c-0.4691162-0.2579956-1.0004272-0.3949585-1.536499-0.3949585s-1.0673828,0.1369629-1.5341187,0.3934937l-13.7846079,7.5693359
	c-0.7394409,0.4057007-1.2750854,1.0726929-1.5079346,1.8776245s-0.1350098,1.6511841,0.2737427,2.3803101
	c0.5569458,0.99646,1.6172485,1.6154785,2.7678223,1.6154785c0.1012573,0,0.2018433-0.0095215,0.3023071-0.019104v10.9890137
	c-1.609314,0.7072754-2.7360229,2.3022461-2.7360229,4.1550293v2.1882935v0.6561279v0.0090332
	c-2.4042969-3.8114624-4.2227783-8.3619995-5.4279785-13.6593018c-1.7528687-7.7052612-1.6971436-14.9815063-1.5102539-18.614502
	c0.6342773,0.031311,1.2666016,0.0471802,1.8949585,0.0471802c0,0,0.0009766,0,0.0020142,0
	c10.5943604-0.0009766,18.0686646-4.3776855,21.2598267-6.6726685c3.1906128,2.2954102,10.664917,6.6726685,21.2603149,6.6726685
	C48.388607,10.8494263,49.0217857,10.8335571,49.6566124,10.802002z"/>
</svg>
