<?xml version="1.0" encoding="utf-8"?>
<!-- Generator: Adobe Illustrator 23.0.3, SVG Export Plug-In . SVG Version: 6.00 Build 0)  -->
<svg version="1.1" id="Layer_1" xmlns="http://www.w3.org/2000/svg" xmlns:xlink="http://www.w3.org/1999/xlink" x="0px" y="0px"
	 viewBox="0 0 39 53" style="enable-background:new 0 0 39 53;" xml:space="preserve">
<style type="text/css">
	.st0{fill:#BEBEBE;}
	.st1{fill:#FFE000;}
</style>
<path fill="#5a76c0" d="M17.7907715,25.5643921H7.7393188v-2.8388672h10.0514526V25.5643921z M7.7393188,10.1921997H31.260498V7.6966553H7.7393188
	V10.1921997z M39,3.0405884v46.9187622C39,51.6359253,37.6278076,53,35.9411621,53H3.0588379
	C1.3721924,53,0,51.6359253,0,49.9593506V3.0405884C0,1.3640137,1.3721924,0,3.0588379,0h32.8823242
	C37.6278076,0,39,1.3640137,39,3.0405884z M37.449646,3.0405884c0-0.8267212-0.6768188-1.4994507-1.5084839-1.4994507H3.0588379
	c-0.831665,0-1.5084839,0.6727295-1.5084839,1.4994507v46.9187622c0,0.8267822,0.6768188,1.4995117,1.5084839,1.4995117h32.8823242
	c0.831665,0,1.5084839-0.6727295,1.5084839-1.4995117V3.0405884z M5.2546997,5.2266235h28.4906006v7.4355469H5.2546997V5.2266235z
	 M6.8050537,11.1210327h25.3898926V6.7677612H6.8050537V11.1210327z M5.2546997,20.2556763h28.4906006v27.1785278H5.2546997
	V20.2556763z M6.8050537,45.8930664h5.2098389v-4.5192871H6.8050537V45.8930664z M20.2749634,28.0343628v5.12854h5.1593018v-5.12854
	H20.2749634z M25.4342651,26.4932251V21.796814h-5.1593018v4.6964111H25.4342651z M13.5652466,41.3737793v4.5192871h5.1593018
	v-4.5192871H13.5652466z M18.7245483,39.8326416v-5.1286011h-5.1593018v5.1286011H18.7245483z M20.2749634,45.8930664h5.1593018
	v-4.5192871h-5.1593018V45.8930664z M25.4342651,39.8326416v-5.1286011h-5.1593018v5.1286011H25.4342651z M26.9846191,39.8326416
	h5.2103271v-5.1286011h-5.2103271V39.8326416z M32.1949463,33.1629028v-5.12854h-5.2103271v5.12854H32.1949463z
	 M18.7245483,28.0343628h-5.1593018v5.12854h5.1593018V28.0343628z M12.0148926,28.0343628H6.8050537v5.12854h5.2098389V28.0343628z
	 M6.8050537,34.7040405v5.1286011h5.2098389v-5.1286011H6.8050537z M32.1949463,45.8930664v-4.5192871h-5.2103271v4.5192871
	H32.1949463z M32.1949463,21.796814h-5.2103271v4.6964111h5.2103271V21.796814z M6.8050537,21.796814v4.6964111h11.9194946
	V21.796814H6.8050537z"/>
</svg>
