<?xml version="1.0" encoding="utf-8"?>
<!-- Generator: Adobe Illustrator 23.0.3, SVG Export Plug-In . SVG Version: 6.00 Build 0)  -->
<svg version="1.1" id="Layer_1" xmlns="http://www.w3.org/2000/svg" xmlns:xlink="http://www.w3.org/1999/xlink" x="0px" y="0px"
	 viewBox="0 0 63 56" style="enable-background:new 0 0 63 56;" xml:space="preserve">
<style type="text/css">
	.st0{fill:#BEBEBE;}
	.st1{fill:#FFE000;}
</style>
<path fill="#5a76c0" d="M49.0835571,27.5169678l0.7229614,1.7628784l-0.28302-0.6710815l-6.1452637,2.5841675l-8.3151855-1.9658813
	c-1.4153442-0.2886963-2.7030029-0.4766235-4.1287842,0.1494751l-2.2109985,0.9713135
	c-3.7842407-0.8139038-8.1248169-0.5717773-9.0440674-0.5070801l-6.2025757-2.6083984l-0.2904663,0.6888428l0.7302856-1.7807617
	L0,20.5071411v25.4439697l4.9835815,1.9716797l2.7042236-6.5941162L7.4255371,42.001709l6.8824463,2.6732178l0.9089355-2.121582
	c0.5230713,0.3803101,1.3125,0.9663696,2.2978516,1.7295532l-0.0507202,0.0565796
	c-0.4024658,0.4490356-0.5982056,1.0274658-0.5518799,1.62854c0.046814,0.6013184,0.3300781,1.1429443,0.7973022,1.5249023
	c0.3560181,0.2908936,0.7706299,0.4553833,1.194519,0.5095825c-0.0965576,0.3034668-0.1384277,0.6246338-0.1149292,0.9518433
	c0.0487061,0.6785278,0.3589478,1.2973022,0.8743896,1.7423096c0.4851685,0.4190674,1.078186,0.6251831,1.668335,0.6251831
	c0.2155762,0,0.4284668-0.0373535,0.6379395-0.092041c0.098938,0.5064087,0.3452759,0.987793,0.75,1.3641357
	c0.4865723,0.4523315,1.1069946,0.6761475,1.7260132,0.6761475c0.197998,0,0.394165-0.0299683,0.5874023-0.0755615
	c0.0941162,0.4740601,0.3251953,0.9249268,0.6998291,1.2822266c0.4691162,0.4468994,1.0753174,0.6693115,1.6810913,0.6693115
	c0.6071777,0,1.2105713-0.2299805,1.6779175-0.6748657l0.8279419,0.7935791C30.4207153,55.744751,31.0770874,56,31.75,56
	c0.2856445,0,0.5740967-0.0458374,0.8544922-0.1400146c0.6503906-0.2179565,1.1494141-0.6625366,1.4478149-1.230896
	c0.3344727,0.130188,0.6797485,0.2240601,1.0367432,0.2435913c0.0643311,0.00354,0.1300659,0.0053711,0.1976929,0.0053711
	c0.9793701,0,2.2958374-0.4008789,3.3683472-2.1547852c0.0015259-0.0024414,0.0014038-0.0053101,0.0028687-0.0078125
	c0.0755615,0.0046997,0.1489258,0.0227051,0.2250977,0.0227051c0.2761841,0,0.5556641-0.031189,0.8336792-0.0951538
	c1.2015381-0.2756348,2.1397705-1.1235352,2.5664673-2.3065796c0.1607056-0.0048828,0.3222046-0.0167236,0.4837036-0.0507813
	c0.9273071-0.196167,1.6688232-0.8461304,1.9837646-1.739502c0.2813721-0.8005981,0.1333618-1.6743774-0.395813-2.3372803
	l-0.24823-0.310791l3.9788818-1.2626953l0.6066895,1.4159546l6.881958-2.6732178l-0.2666626-0.6843262l2.7088623,6.6054688
	L63,47.3276367V21.883667L49.0835571,27.5169678z M31.5197144,30.7042847
	c0.9448242-0.4160156,1.8371582-0.3446655,3.2307739-0.0609131l8.1672363,1.9312134l1.0002441,2.3343506l1.8644409,4.3513184
	c-2.1548462,1.270874-4.1158447,1.322876-5.772522,0.8297119c-0.0332031-0.0103149-0.0632935-0.0198975-0.0923462-0.0293579
	c-0.0432739-0.0134888-0.0853882-0.0288086-0.1281738-0.0430298c-0.0764771-0.0270996-0.1327515-0.0485229-0.1473389-0.0545044
	l-0.8239746-0.3407593c-2.4985352-1.2121582-4.0701904-3.4724731-4.1928711-3.65271
	c-0.8867188-1.2099609-1.8329468-1.8219604-2.8170166-1.8219604c-0.0648193,0-0.1295776,0.0028687-0.1943359,0.0080566
	c-1.6102295,0.1310425-2.5205078,1.8374634-2.6188965,2.0317993l-0.0236206,0.0516968
	c-0.496521,1.2042847-1.0975952,1.9470215-1.7865601,2.2077026c-0.4899292,0.1855469-1.0484009,0.1281738-1.6584473-0.1712036
	c-0.2510986-0.1229858-0.3768921-0.4327393-0.2927246-0.7207642l0.8649292-2.9641113
	c0.3201294-1.0968628,1.104187-1.9899902,2.1516113-2.4501343L31.5197144,30.7042847z M13.5248413,42.8145752L7.9642944,40.65448
	l4.9550781-12.0827026l5.6833496,2.3903198L13.5248413,42.8145752z M18.3605957,45.855896
	c-0.015564-0.2028198,0.0505981-0.3978271,0.1863403-0.5491943l0.1126099-0.1256714
	c0.4013672,0.3190918,0.8300171,0.6658936,1.272644,1.0276489l-0.0549927,0.0620117
	c-0.322998,0.3633423-0.8701172,0.4077148-1.2474976,0.0998535C18.472229,46.2416382,18.376709,46.0588989,18.3605957,45.855896z
	 M20.6139526,49.5997925c-0.2218018-0.1914673-0.3551636-0.4572754-0.3759766-0.7488403
	c-0.020813-0.291626,0.0733032-0.5739746,0.2653198-0.7949219l0.6938477-0.7988281
	c0.5445557,0.4573364,1.1047363,0.934082,1.6871948,1.4415894l-0.7467651,0.8131714
	C21.7346802,49.9506226,21.06604,49.9898071,20.6139526,49.5997925z M23.7099609,51.5324707
	c-0.4330444-0.4026489-0.460083-1.0844727-0.0608521-1.5202026l0.324646-0.3533936
	c0.5241089,0.4678955,1.0608521,0.9588623,1.6027222,1.4608765l-0.3424072,0.362854
	C24.8278198,51.9137573,24.1435547,51.9354248,23.7099609,51.5324707z M26.7364502,53.4275513
	c-0.3657837-0.3483887-0.3890991-0.9101563-0.0871582-1.302063c0.3660889,0.3482056,0.7335205,0.7001343,1.1033936,1.0619507
	l0.2835083,0.2717285C27.6574097,53.7728271,27.098877,53.7728882,26.7364502,53.4275513z M43.2189941,47.1130371
	c0.2156372,0.2700806,0.2756958,0.6261597,0.1612549,0.9519653c-0.1470947,0.4176025-0.4804688,0.7096558-0.9141235,0.8015137
	c-0.4336548,0.0908813-0.855896-0.0405884-1.1599731-0.3626709l-6.6445923-7.0404053
	c-0.2747192-0.291626-0.7357788-0.3048096-1.0266113-0.0304565c-0.2922363,0.2747803-0.3059692,0.7337646-0.0307617,1.0253296
	l6.6445923,7.0402222c0.1837158,0.1947632,0.3964844,0.3457031,0.619812,0.4751587
	c-0.2618408,0.630127-0.7942505,1.0990601-1.4771729,1.2556152c-0.7623291,0.175415-1.5411377-0.0559692-2.0802612-0.6190186
	l-5.5919189-5.8406372c-0.276123-0.2892456-0.7372437-0.2993774-1.0266113-0.0231934
	c-0.2903442,0.2769775-0.300293,0.7359009-0.0231934,1.0256348l5.5919189,5.8406372
	c0.2703247,0.2822876,0.5843506,0.4978638,0.9151611,0.6765137c-0.5744019,0.7786255-1.2469482,1.1762695-2.0079956,1.1352539
	c-0.5348511-0.0292969-1.0776978-0.3081055-1.489624-0.7649536l-4.6248169-5.1283569
	c-0.2681274-0.2972412-0.7272949-0.321106-1.0256958-0.0535889c-0.2979126,0.2679443-0.3220825,0.7266846-0.0534668,1.024353
	l4.6243896,5.1281738c0.0675049,0.0748291,0.1455078,0.1322632,0.2169189,0.2008667
	c-0.1584473,0.416687-0.5077515,0.5982056-0.6741943,0.6539917c-0.4360352,0.1454468-0.8895264,0.0460205-1.2158203-0.2665405
	l-2.1620483-2.0721436c-5.8496094-5.7225952-11.3526611-9.8023682-12.9615479-10.9599609l4.2479248-9.914978
	c1.0294189-0.0588379,3.7721558-0.1604614,6.5289307,0.1860962c-0.8919678,0.6801758-1.5548706,1.6278076-1.8759766,2.7277222
	L23.838562,37.149353c-0.2832642,0.9707642,0.1574707,1.9921265,1.0474243,2.4286499
	c0.9713135,0.475708,1.9436035,0.5534058,2.8132324,0.2252197c1.0734863-0.4058228,1.9492798-1.4092407,2.6032715-2.9825439
	c0.1702271-0.3227539,0.7546997-1.1643677,1.4295654-1.2191772c0.6364746-0.0495605,1.2904663,0.6369629,1.7047119,1.2019653
	c0.0326538,0.0484009,1.8969727,2.736084,4.897522,4.1621704c0.0169067,0.0284424,0.0234375,0.0604248,0.0446777,0.0869751
	l3.9174805,4.9052124l0.3011475,0.4191284l0.0267334-0.0084839L43.2189941,47.1130371z M43.163147,44.6756592l-2.0665283-2.8753662
	c1.4333496,0.1860352,3.4284668,0.1088257,5.2944946-1.1192627l1.119812,2.6144409L43.163147,44.6756592z M49.4752808,44.190979
	l-3.0334473-7.0797729l-2.0448608-4.7727051l5.6836548-2.3902588l4.9549561,12.0825806L49.4752808,44.190979z M21.9985352,23.699707
	L41.9402466,3.7878418l1.0162354,1.0147095L23.0147705,24.7141724L21.9985352,23.699707z M35.7454224,21.4157715
	c0,3.029541,2.4680176,5.4943237,5.5020142,5.4943237c3.0340576,0,5.5025635-2.4647827,5.5025635-5.4943237
	s-2.4685059-5.4940796-5.5025635-5.4940796C38.2134399,15.9216919,35.7454224,18.3862305,35.7454224,21.4157715z
	 M45.312439,21.4157715c0,2.2381592-1.8234863,4.0588989-4.0650024,4.0588989c-2.2414551,0-4.0649414-1.8207397-4.0649414-4.0588989
	c0-2.237915,1.8234863-4.0586548,4.0649414-4.0586548C43.4889526,17.3571167,45.312439,19.1778564,45.312439,21.4157715z
	 M25.302124,10.9883423c3.0340576,0,5.5020752-2.4647827,5.5020752-5.4942627C30.8041992,2.4645386,28.3361816,0,25.302124,0
	s-5.5025024,2.4645386-5.5025024,5.4940796C19.7996216,8.5235596,22.2680664,10.9883423,25.302124,10.9883423z M25.302124,1.4354248
	c2.2415161,0,4.0649414,1.8207397,4.0649414,4.0586548c0,2.2380981-1.8234253,4.0588379-4.0649414,4.0588379
	s-4.0649414-1.8207397-4.0649414-4.0588379C21.2371826,3.2561646,23.0606079,1.4354248,25.302124,1.4354248z"/>
</svg>
