<?xml version="1.0" encoding="utf-8"?>
<!-- Generator: Adobe Illustrator 23.0.3, SVG Export Plug-In . SVG Version: 6.00 Build 0)  -->
<svg version="1.1" id="Layer_1" xmlns="http://www.w3.org/2000/svg" xmlns:xlink="http://www.w3.org/1999/xlink" x="0px" y="0px"
	 viewBox="0 0 63 54" style="enable-background:new 0 0 63 54;" xml:space="preserve">
<style type="text/css">
	.st0{fill:#BEBEBE;}
	.st1{fill:#FFE000;}
</style>
<path fill="#5a76c0" d="M61.3153877,0H1.6846117C0.7555979,0,0,0.7514082,0,1.6752707v35.9545975
	c0,0.9238625,0.7555979,1.6752701,1.6846117,1.6752701h20.5680676c0.0459156,0.5923386,0.1492977,1.1676216,0.302763,1.7236557
	l-6.5502014,6.5138817h6.4930916V54l6.5498142-6.5141792c0.7823963,0.2136154,1.6019249,0.3373299,2.4516144,0.3373299
	c0.8496914,0,1.6692181-0.1237144,2.451643-0.3373299l6.5502625,6.5139427V47.542675h6.4930916l-6.5502319-6.5139122
	c0.1534958-0.5560341,0.2568474-1.1312866,0.3027916-1.7236252h20.5680695C62.2444038,39.3051376,63,38.55373,63,37.6298676
	V1.6752707C63,0.7514082,62.2444038,0,61.3153877,0z M23.9618874,50.4860077v-4.3987732h-4.4235363l3.5775967-3.5577583
	c0.9190979,1.9267883,2.4857368,3.4847984,4.4232082,4.3988876L23.9618874,50.4860077z M23.6798477,38.5909195
	c0-4.2883797,3.5078602-7.7770252,7.8199139-7.7770252s7.8203907,3.4886456,7.8203907,7.7770252
	c0,4.2881432-3.5083389,7.7767906-7.8203907,7.7767906S23.6798477,42.8790627,23.6798477,38.5909195z M43.461647,46.0872345
	h-4.4235344v4.3990097l-3.577713-3.5578804c1.9376183-0.9140892,3.504406-2.4720993,4.4235916-4.3989449L43.461647,46.0872345z
	 M61.5364456,37.6298676c0,0.1212845-0.0990944,0.2198334-0.2210579,0.2198334H40.7459488
	c-0.3818779-4.7444801-4.3786621-8.4912453-9.2461872-8.4912453s-8.863863,3.7467651-9.2457123,8.4912453H1.6846117
	c-0.1219628,0-0.2210577-0.0985489-0.2210577-0.2198334V1.6752707c0-0.1212866,0.0990949-0.2198319,0.2210577-0.2198319h59.6307755
	c0.1219635,0,0.2210579,0.0985453,0.2210579,0.2198319V37.6298676z M37.1471519,38.5908012
	c0,3.1016312-2.5283737,5.6160202-5.6472702,5.6160202c-3.118927,0-5.6473331-2.514389-5.6473331-5.6160202
	s2.5284061-5.6159859,5.6473331-5.6159859C34.6187782,32.9748154,37.1471519,35.4891701,37.1471519,38.5908012z
	 M40.5940933,28.9678268c0.2858505,0.284029,0.2858505,0.7447758,0,1.0290413
	c-0.1429253,0.1421318-0.3301582,0.2131996-0.5173912,0.2131996c-0.1872292,0-0.3744621-0.0710678-0.5173874-0.2131996
	c-2.1529312-2.1407547-5.0152473-3.319746-8.0595531-3.319746s-5.9066219,1.1789913-8.0590763,3.319746
	c-0.2858505,0.2842655-0.7489281,0.2842655-1.0347786,0c-0.2858486-0.284029-0.2858486-0.7447758,0-1.0290413
	c2.4287758-2.415781,5.6584091-3.7461433,9.0938549-3.7461433S38.1648407,26.5520458,40.5940933,28.9678268z M45.4768944,16.5143967
	c0,0.4020004-0.327774,0.7277203-0.7317772,0.7277203H18.5292988c-0.4040012,0-0.7317753-0.3257198-0.7317753-0.7277203
	c0-0.4019985,0.327774-0.7277184,0.7317753-0.7277184h26.2158184
	C45.1491203,15.7866783,45.4768944,16.1123981,45.4768944,16.5143967z M50.0719376,10.4256697
	c0,0.4019985-0.327774,0.7277193-0.7317772,0.7277193H13.8894711c-0.4040022,0-0.7317772-0.3257208-0.7317772-0.7277193
	s0.327775-0.7277193,0.7317772-0.7277193h35.4506912C49.7441635,9.6979504,50.0719376,10.0236712,50.0719376,10.4256697z"/>
</svg>
