<?xml version="1.0" encoding="utf-8"?>
<!-- Generator: Adobe Illustrator 23.0.3, SVG Export Plug-In . SVG Version: 6.00 Build 0)  -->
<svg version="1.1" id="Layer_1" xmlns="http://www.w3.org/2000/svg" xmlns:xlink="http://www.w3.org/1999/xlink" x="0px" y="0px"
	 viewBox="0 0 61.0000076 57.9999847" style="enable-background:new 0 0 61.0000076 57.9999847;" xml:space="preserve">
<style type="text/css">
	.st0{fill:#BEBEBE;}
	.st1{fill:#FFE000;}
</style>
<path fill="#5a76c0" d="M60.5820656,23.4642944c0.3787842-0.3685303,0.5131226-0.9091187,0.3492432-1.4111938
	c-0.1634521-0.5020142-0.590332-0.8612671-1.1138916-0.9373169l-17.3284912-2.5114746
	c-1.2987671-0.1882324-2.4207764-1.0012817-3.0015259-2.1750488L31.7381325,0.7674561
	C31.5037575,0.2938843,31.0296974,0,30.4999123,0c-0.5293579,0-1.0033569,0.2938843-1.2373047,0.7672119l-7.7496948,15.6620483
	c-0.5812988,1.1737671-1.7033081,1.9868164-3.0015869,2.1750488L1.1828949,21.1157837
	c-0.5241088,0.0760498-0.9509887,0.4353027-1.1143799,0.9373169c-0.1634521,0.5020752-0.029541,1.0426636,0.3492432,1.4111938
	l12.5393066,12.19104c0.9395142,0.9133911,1.3678589,2.2290039,1.145813,3.5194092l-2.9595947,17.2138672
	c-0.0895996,0.5203247,0.1204834,1.0361938,0.5488281,1.3464966c0.4278564,0.3103027,0.984314,0.3514404,1.4541016,0.1050415
	l15.4989023-8.1273193c1.1615601-0.6092529,2.5479736-0.6092529,3.7095337,0l15.4994507,8.1273193
	c0.2039185,0.1069336,0.4240112,0.159668,0.6436157,0.159668c0.2849121,0,0.5679321-0.0891113,0.8099976-0.2644653
	c0.4282837-0.3103027,0.638855-0.826416,0.5493164-1.3464966l-2.960083-17.2141113
	c-0.2220459-1.2901611,0.2067261-2.6057739,1.1463013-3.5194092L60.5820656,23.4642944z M45.454258,39.4213867l2.9315186,17.0482178
	L33.035984,48.4207153c-0.7942505-0.4165039-1.6651611-0.6246338-2.5360718-0.6246338s-1.7423096,0.208374-2.5360718,0.6246338
	l-15.3493662,8.0488892l2.9310303-17.0482178c0.3035278-1.7639771-0.2825317-3.5626221-1.5669556-4.8115234L1.5602143,22.5361938
	l17.1616821-2.4872437c1.7747803-0.2571411,3.3088989-1.3686523,4.1030884-2.9734497l7.6749268-15.5111084l7.675354,15.5109253
	c0.7937622,1.6047363,2.3273926,2.7164917,4.1030884,2.9736328l17.1611938,2.4872437L47.0217628,34.6098633
	C45.7367897,35.8590088,45.1507912,37.6576538,45.454258,39.4213867z M47.7082863,28.5818481l-4.3703613,4.5297241
	c-1.3549805,1.4042358-1.9833984,3.3174438-1.7241821,5.2489014l0.984314,7.3382568
	c0.053833,0.3994141-0.2272949,0.7667236-0.6279907,0.8201904c-0.0328369,0.0042725-0.0657349,0.0064087-0.0981445,0.0064087
	c-0.361084,0-0.6751099-0.2663574-0.7241821-0.6331787l-0.984314-7.3380127
	c-0.3187256-2.3751221,0.4536133-4.7279053,2.1196899-6.4547729l4.3703613-4.5297241
	c0.2810669-0.2903442,0.7437134-0.2991333,1.03479-0.0199585C47.9794044,27.8293457,47.9884377,28.2914429,47.7082863,28.5818481z
	 M24.7281837,18.0119629L30.5000343,6.34729l-2.6445313,12.0177002c-0.8535156,3.8786621-3.6500244,6.854126-7.9268799,7.4765015
	L13.47861,26.3341064c3.5310068,3.1306152,9.9962168,7.8664551,6.4926767,15.8823242l-4.538331,10.3832397l2.2047129-12.8200684
	c0.4214478-2.4509888-0.3927002-4.949707-2.1779184-6.6849976l-9.3389893-9.0803833l12.9063721-1.8704224
	C21.4932594,21.7868042,23.6246681,20.2421875,24.7281837,18.0119629z"/>
</svg>
